PathFileType	4	(X/Y/Z)	OpenSim_Sub08_CSBaseline_Magnet.trc
DataRate	CameraRate	NumFrames	NumMarkers	Units	OrigDataRate	OrigDataStartFrame	OrigNumFrames
100	100	23	8	m	100	4779	5461
Frame#	Time	torso_imu_offset_imu	pelvis_imu_offset_imu	tibia_r_imu_offset_imu	femur_r_imu_offset_imu	tibia_l_imu_offset_imu	femur_l_imu_offset_imu	toes_r_imu_offset_imu	toes_l_imu_offset_imu
				X1	Y1	Z1	X2	Y2	Z2	X3	Y3	Z3	X4	Y4	Z4	X5	Y5	Z5	X6	Y6	Z6	X7	Y7	Z7	X8		Y8	Z8	

4779	47.78000000	-0.94970700	-0.13964800	0.06787100	-0.61962900	0.16699200	-0.71362300	-0.67285200	-0.53320300	0.10961900	-0.76831100	-0.35961900	0.07251000	-0.21679700	0.80908200	0.07568400	-0.62793000	-0.07348600	0.22436500	-0.61767600	-0.19555700	-0.44018600	-0.82031200	0.12109400	0.20605500
4780	47.79000000	-0.94970700	-0.14184600	0.07470700	-0.61718800	0.15454100	-0.71777300	-0.66210900	-0.53735400	0.11206100	-0.76416000	-0.35937500	0.06811500	-0.23877000	0.79785200	0.08300800	-0.63183600	-0.08862300	0.20654300	-0.62402300	-0.18945300	-0.45703100	-0.83544900	0.10595700	0.17016600
4781	47.80000000	-0.94970700	-0.13964800	0.07446300	-0.62158200	0.16284200	-0.71118200	-0.66406200	-0.54565400	0.11010700	-0.76196300	-0.36352500	0.07275400	-0.26757800	0.78466800	0.08642600	-0.63574200	-0.10180700	0.21118200	-0.62597700	-0.19775400	-0.46093800	-0.84594700	0.08837900	0.12744100
4782	47.81000000	-0.94555700	-0.13964800	0.09204100	-0.61499000	0.15869100	-0.71557600	-0.66577100	-0.55615200	0.10595700	-0.75952100	-0.36767600	0.06591800	-0.29174800	0.77148400	0.10302700	-0.63745100	-0.11279300	0.21118200	-0.62597700	-0.20166000	-0.46289100	-0.85205100	0.06884800	0.08935500
4783	47.82000000	-0.94775400	-0.13330100	0.08081100	-0.61499000	0.15649400	-0.71093800	-0.65918000	-0.56030300	0.11279300	-0.75732400	-0.37182600	0.07080100	-0.32910200	0.75585900	0.11767600	-0.63696300	-0.12793000	0.20459000	-0.63183600	-0.21191400	-0.47753900	-0.85351600	0.04931600	0.04223600
4784	47.83000000	-0.94775400	-0.13964800	0.09204100	-0.61718800	0.15454100	-0.71557600	-0.65307600	-0.56030300	0.10839800	-0.75732400	-0.37402300	0.06616200	-0.36035200	0.74707000	0.12304700	-0.64111300	-0.13867200	0.20263700	-0.63378900	-0.21411100	-0.47949200	-0.84838900	0.03418000	-0.00488300
4785	47.84000000	-0.94775400	-0.13745100	0.09423800	-0.61694300	0.15039100	-0.71997100	-0.65283200	-0.56640600	0.10180700	-0.75512700	-0.38012700	0.05957000	-0.38867200	0.72265600	0.12231400	-0.63647500	-0.14746100	0.19824200	-0.63378900	-0.21997100	-0.49804700	-0.84375000	0.02563500	-0.05419900
4786	47.85000000	-0.94775400	-0.13745100	0.09863300	-0.61718800	0.15649400	-0.72485400	-0.65039100	-0.57275400	0.10888700	-0.75268600	-0.38623000	0.06445300	-0.42822300	0.70288100	0.12597700	-0.64038100	-0.15625000	0.20288100	-0.63769500	-0.22827100	-0.50219700	-0.83862300	0.01269500	-0.09008800
4787	47.86000000	-0.94555700	-0.13964800	0.09863300	-0.61279300	0.15454100	-0.71777300	-0.64624000	-0.57495100	0.10668900	-0.74853500	-0.38623000	0.05981400	-0.46582000	0.68310500	0.12085000	-0.64038100	-0.15820300	0.20507800	-0.63964800	-0.23437500	-0.50634800	-0.82714800	0.00415000	-0.12841800
4788	47.87000000	-0.94995100	-0.13549800	0.10522500	-0.61718800	0.15454100	-0.71557600	-0.64599600	-0.58105500	0.10473600	-0.74853500	-0.39257800	0.05786100	-0.49609400	0.65234400	0.11816400	-0.64233400	-0.16699200	0.20068400	-0.64550800	-0.24267600	-0.51440400	-0.81787100	-0.00415000	-0.17309600
4789	47.88000000	-0.94995100	-0.13549800	0.10522500	-0.61523400	0.16088900	-0.71801800	-0.63354500	-0.57910200	0.10229500	-0.75048800	-0.39672900	0.06250000	-0.53125000	0.63012700	0.11523400	-0.63793900	-0.16479500	0.20068400	-0.65161100	-0.24682600	-0.52075200	-0.80859400	-0.01049800	-0.20019500
4790	47.89000000	-0.94116200	-0.14379900	0.10986300	-0.61499000	0.15649400	-0.72265600	-0.63525400	-0.58740200	0.10253900	-0.74609400	-0.40063500	0.05590800	-0.55737300	0.60156200	0.10815400	-0.63818400	-0.16040000	0.20727500	-0.64917000	-0.25903300	-0.52465800	-0.79467800	-0.02563500	-0.23828100
4791	47.90000000	-0.94580100	-0.13330100	0.10717800	-0.61523400	0.16284200	-0.71801800	-0.62890600	-0.59155300	0.10058600	-0.74389600	-0.40478500	0.04907200	-0.59912100	0.57299800	0.10766600	-0.63818400	-0.16259800	0.21411100	-0.65551800	-0.26318400	-0.53295900	-0.78100600	-0.03418000	-0.26074200
4792	47.91000000	-0.94335900	-0.14379900	0.10986300	-0.61084000	0.16284200	-0.71801800	-0.62866200	-0.59790000	0.10742200	-0.74585000	-0.40698200	0.04687500	-0.62280300	0.54003900	0.08960000	-0.64038100	-0.15844700	0.20947300	-0.66137700	-0.27539100	-0.53271500	-0.77417000	-0.03613300	-0.30102500
4793	47.92000000	-0.94335900	-0.14379900	0.11206100	-0.60888700	0.16503900	-0.71582000	-0.62451200	-0.59985400	0.09863300	-0.74585000	-0.40893600	0.04003900	-0.65747100	0.50488300	0.08740200	-0.64038100	-0.15625000	0.21411100	-0.67163100	-0.27758800	-0.53906200	-0.75585900	-0.04907200	-0.33471700
4794	47.93000000	-0.94775400	-0.13745100	0.12060500	-0.60888700	0.17138700	-0.72314500	-0.61987300	-0.61035200	0.09668000	-0.74145500	-0.41308600	0.04028300	-0.67895500	0.47168000	0.09814500	-0.63623000	-0.14965800	0.22290000	-0.67163100	-0.27954100	-0.53906200	-0.73974600	-0.06201200	-0.36621100
4795	47.94000000	-0.94140600	-0.13549800	0.11840800	-0.60913100	0.17334000	-0.72094700	-0.61572300	-0.60815400	0.09668000	-0.73510700	-0.41308600	0.04028300	-0.69335900	0.42993200	0.09814500	-0.63427700	-0.14306600	0.23193400	-0.67968800	-0.28784200	-0.54516600	-0.72387700	-0.06591800	-0.39746100
4796	47.95000000	-0.94775400	-0.13964800	0.12085000	-0.60278300	0.17773400	-0.71630900	-0.60937500	-0.61450200	0.09008800	-0.73706100	-0.42334000	0.04296900	-0.71679700	0.39697300	0.10668900	-0.63427700	-0.14086900	0.23413100	-0.68383800	-0.29394500	-0.54711900	-0.71435500	-0.07666000	-0.42675800
4797	47.96000000	-0.94555700	-0.13549800	0.12500000	-0.60058600	0.17553700	-0.71386700	-0.60498000	-0.61865200	0.09033200	-0.73706100	-0.42138700	0.03833000	-0.73364300	0.35717800	0.11108400	-0.62988300	-0.14086900	0.23852500	-0.68579100	-0.29418900	-0.54296900	-0.69384800	-0.09179700	-0.45361300
4798	47.97000000	-0.94335900	-0.13745100	0.12719700	-0.60522500	0.18603500	-0.71655300	-0.59863300	-0.62280300	0.08813500	-0.73266600	-0.42968800	0.03173800	-0.75268600	0.32202100	0.11547900	-0.63012700	-0.13427700	0.22949200	-0.69799800	-0.30444300	-0.54296900	-0.67285200	-0.11132800	-0.47827100
4799	47.98000000	-0.94360400	-0.13330100	0.12280300	-0.60961900	0.18823200	-0.71899400	-0.59399400	-0.63525400	0.08642600	-0.73046900	-0.42944300	0.02954100	-0.75854500	0.29565400	0.12573200	-0.62793000	-0.13647500	0.24292000	-0.70019500	-0.30664100	-0.54077100	-0.65210000	-0.12866200	-0.49829100
4800	47.99000000	-0.94580100	-0.12915000	0.13134800	-0.60546900	0.19238300	-0.71460000	-0.58960000	-0.63940400	0.08203100	-0.72827100	-0.43359400	0.03198200	-0.77978500	0.25610400	0.12573200	-0.63256800	-0.12793000	0.23852500	-0.69995100	-0.31274400	-0.53857400	-0.63330100	-0.15258800	-0.51831100
4801	48.00000000	-0.94580100	-0.12915000	0.12695300	-0.60546900	0.19653300	-0.71240200	-0.58935500	-0.64355500	0.08227500	-0.72607400	-0.43994100	0.02758800	-0.77661100	0.22973600	0.13134800	-0.63012700	-0.13427700	0.24511700	-0.71020500	-0.31689500	-0.54272500	-0.61230500	-0.17431600	-0.54077100
